{
  "accessors": [
    {
      "bufferView": 2,
      "componentType": 5126,
      "count": 354,
      "max": [
        1.7248046398162842,
        1.092890977859497,
        1.3799774646759033
      ],
      "min": [
        -1.0998380184173584,
        -0.8461847305297852,
        0.26998305320739746
      ],
      "type": "VEC3"
    },
    {
      "bufferView": 2,
      "byteOffset": 4248,
      "componentType": 5126,
      "count": 354,
      "max": [
        0.9999980926513672,
        0.9933291673660278,
        1.0
      ],
      "min": [
        -0.9999980926513672,
        -0.9933291673660278,
        -1.0
      ],
      "type": "VEC3"
    },
    {
      "bufferView": 1,
      "componentType": 5126,
      "count": 354,
      "max": [
        0.41734763979911804,
        0.8826293349266052
      ],
      "min": [
        0.2730851471424103,
        0.7526893615722656
      ],
      "type": "VEC2"
    },
    {
      "bufferView": 0,
      "componentType": 5125,
      "count": 924,
      "type": "SCALAR"
    },
    {
      "bufferView": 2,
      "byteOffset": 8496,
      "componentType": 5126,
      "count": 1006,
      "max": [
        0.8040520548820496,
        0.7371346950531006,
        0.9982244968414307
      ],
      "min": [
        -0.8054801225662231,
        -1.932425856590271,
        -0.4895084500312805
      ],
      "type": "VEC3"
    },
    {
      "bufferView": 2,
      "byteOffset": 20568,
      "componentType": 5126,
      "count": 1006,
      "max": [
        1.0,
        1.0,
        1.0
      ],
      "min": [
        -1.0,
        -1.0,
        -1.0
      ],
      "type": "VEC3"
    },
    {
      "bufferView": 1,
      "byteOffset": 2832,
      "componentType": 5126,
      "count": 1006,
      "max": [
        0.9636560678482056,
        0.981460690498352
      ],
      "min": [
        0.1536809206008911,
        0.5206493735313416
      ],
      "type": "VEC2"
    },
    {
      "bufferView": 0,
      "byteOffset": 3696,
      "componentType": 5125,
      "count": 2730,
      "type": "SCALAR"
    },
    {
      "bufferView": 3,
      "componentType": 5126,
      "count": 1,
      "max": [
        0.0
      ],
      "min": [
        0.0
      ],
      "type": "SCALAR"
    },
    {
      "bufferView": 4,
      "componentType": 5126,
      "count": 1,
      "max": [
        100.0,
        100.0,
        100.0
      ],
      "min": [
        100.0,
        100.0,
        100.0
      ],
      "type": "VEC3"
    },
    {
      "bufferView": 3,
      "byteOffset": 4,
      "componentType": 5126,
      "count": 236,
      "max": [
        4.958333492279053
      ],
      "min": [
        0.0
      ],
      "type": "SCALAR"
    },
    {
      "bufferView": 5,
      "componentType": 5126,
      "count": 236,
      "max": [
        0.5000000596046448,
        0.7071067094802856,
        0.7071068286895752,
        0.7071067094802856
      ],
      "min": [
        -0.7071068286895752,
        -0.4999999701976776,
        -0.5000000596046448,
        -0.4999999701976776
      ],
      "type": "VEC4"
    },
    {
      "bufferView": 3,
      "byteOffset": 948,
      "componentType": 5126,
      "count": 4,
      "max": [
        1.2083333730697632
      ],
      "min": [
        0.0
      ],
      "type": "SCALAR"
    },
    {
      "bufferView": 4,
      "byteOffset": 12,
      "componentType": 5126,
      "count": 4,
      "max": [
        100.0,
        100.0,
        100.0
      ],
      "min": [
        100.0,
        99.99999237060547,
        99.99999237060547
      ],
      "type": "VEC3"
    },
    {
      "bufferView": 3,
      "byteOffset": 964,
      "componentType": 5126,
      "count": 58,
      "max": [
        1.2083333730697632
      ],
      "min": [
        0.0
      ],
      "type": "SCALAR"
    },
    {
      "bufferView": 5,
      "byteOffset": 3776,
      "componentType": 5126,
      "count": 58,
      "max": [
        -0.4419567584991455,
        0.0,
        0.0,
        0.8970363736152649
      ],
      "min": [
        -0.7071068286895752,
        0.0,
        0.0,
        0.7071067094802856
      ],
      "type": "VEC4"
    },
    {
      "bufferView": 3,
      "byteOffset": 1196,
      "componentType": 5126,
      "count": 18,
      "max": [
        0.375
      ],
      "min": [
        0.0
      ],
      "type": "SCALAR"
    },
    {
      "bufferView": 4,
      "byteOffset": 60,
      "componentType": 5126,
      "count": 18,
      "max": [
        100.0,
        120.00000762939453,
        100.65553283691406
      ],
      "min": [
        100.0,
        100.0,
        100.0
      ],
      "type": "VEC3"
    },
    {
      "bufferView": 3,
      "byteOffset": 1268,
      "componentType": 5126,
      "count": 18,
      "max": [
        0.375
      ],
      "min": [
        0.0
      ],
      "type": "SCALAR"
    },
    {
      "bufferView": 5,
      "byteOffset": 4704,
      "componentType": 5126,
      "count": 18,
      "max": [
        -0.7071068286895752,
        0.0,
        0.0,
        0.7071067094802856
      ],
      "min": [
        -0.771848738193512,
        0.0,
        0.0,
        0.6358062028884888
      ],
      "type": "VEC4"
    }
  ],
  "animations": [
    {
      "channels": [
        {
          "sampler": 0,
          "target": {
            "node": 6,
            "path": "scale"
          }
        },
        {
          "sampler": 1,
          "target": {
            "node": 6,
            "path": "rotation"
          }
        }
      ],
      "name": "idle",
      "samplers": [
        {
          "input": 8,
          "interpolation": "LINEAR",
          "output": 9
        },
        {
          "input": 10,
          "interpolation": "LINEAR",
          "output": 11
        }
      ]
    },
    {
      "channels": [
        {
          "sampler": 0,
          "target": {
            "node": 6,
            "path": "scale"
          }
        },
        {
          "sampler": 1,
          "target": {
            "node": 6,
            "path": "rotation"
          }
        }
      ],
      "name": "destroy",
      "samplers": [
        {
          "input": 12,
          "interpolation": "LINEAR",
          "output": 13
        },
        {
          "input": 14,
          "interpolation": "LINEAR",
          "output": 15
        }
      ]
    },
    {
      "channels": [
        {
          "sampler": 0,
          "target": {
            "node": 6,
            "path": "scale"
          }
        },
        {
          "sampler": 1,
          "target": {
            "node": 6,
            "path": "rotation"
          }
        }
      ],
      "name": "attack",
      "samplers": [
        {
          "input": 16,
          "interpolation": "LINEAR",
          "output": 17
        },
        {
          "input": 18,
          "interpolation": "LINEAR",
          "output": 19
        }
      ]
    }
  ],
  "asset": {
    "extras": {
      "author": "Kelni (https://sketchfab.com/Kelni)",
      "license": "CC-BY-4.0 (http://creativecommons.org/licenses/by/4.0/)",
      "source": "https://sketchfab.com/3d-models/animated-game-ready-turret-bbe8b20f9a624cdebd48e47a1cc0c585",
      "title": "Animated Game-Ready Turret"
    },
    "generator": "Sketchfab-16.62.0",
    "version": "2.0"
  },
  "bufferViews": [
    {
      "buffer": 0,
      "byteLength": 14616,
      "name": "floatBufferViews",
      "target": 34963
    },
    {
      "buffer": 0,
      "byteLength": 10880,
      "byteOffset": 14616,
      "byteStride": 8,
      "name": "floatBufferViews",
      "target": 34962
    },
    {
      "buffer": 0,
      "byteLength": 32640,
      "byteOffset": 25496,
      "byteStride": 12,
      "name": "floatBufferViews",
      "target": 34962
    },
    {
      "buffer": 0,
      "byteLength": 1340,
      "byteOffset": 58136,
      "name": "floatBufferViews"
    },
    {
      "buffer": 0,
      "byteLength": 276,
      "byteOffset": 59476,
      "byteStride": 12,
      "name": "floatBufferViews"
    },
    {
      "buffer": 0,
      "byteLength": 4992,
      "byteOffset": 59752,
      "byteStride": 16,
      "name": "floatBufferViews"
    }
  ],
  "buffers": [
    {
      "byteLength": 64744,
      "uri": "scene.bin"
    }
  ],
  "images": [
    {
      "uri": "textures/texture_baseColor.png"
    }
  ],
  "materials": [
    {
      "doubleSided": true,
      "name": "texture",
      "pbrMetallicRoughness": {
        "baseColorTexture": {
          "index": 0
        },
        "metallicFactor": 0.0
      }
    }
  ],
  "meshes": [
    {
      "name": "Stand_texture_0",
      "primitives": [
        {
          "attributes": {
            "NORMAL": 1,
            "POSITION": 0,
            "TEXCOORD_0": 2
          },
          "indices": 3,
          "material": 0,
          "mode": 4
        }
      ]
    },
    {
      "name": "Turret_texture_0",
      "primitives": [
        {
          "attributes": {
            "NORMAL": 5,
            "POSITION": 4,
            "TEXCOORD_0": 6
          },
          "indices": 7,
          "material": 0,
          "mode": 4
        }
      ]
    }
  ],
  "nodes": [
    {
      "children": [
        1
      ],
      "matrix": [
        0.4000000059604645,
        6.432490587682494e-17,
        2.142449746838913e-32,
        0.0,
        -3.202734617433194e-33,
        1.5314274917032645e-16,
        -0.4000000059604645,
        0.0,
        -6.432490587682494e-17,
        0.4000000059604645,
        1.5314274917032645e-16,
        0.0,
        0.0,
        0.0,
        0.0,
        1.0
      ],
      "name": "Sketchfab_model"
    },
    {
      "children": [
        2
      ],
      "matrix": [
        0.009999999776482582,
        0.0,
        0.0,
        0.0,
        0.0,
        0.0,
        0.009999999776482582,
        0.0,
        0.0,
        -0.009999999776482582,
        0.0,
        0.0,
        0.0,
        0.0,
        0.0,
        1.0
      ],
      "name": "turret.fbx"
    },
    {
      "children": [
        3
      ],
      "name": "Object_2"
    },
    {
      "children": [
        4,
        6
      ],
      "name": "RootNode"
    },
    {
      "children": [
        5
      ],
      "name": "Stand",
      "rotation": [
        -0.7071068286895752,
        0.0,
        0.0,
        0.7071067094802856
      ],
      "scale": [
        100.0,
        100.0,
        100.0
      ]
    },
    {
      "mesh": 0,
      "name": "Stand_texture_0"
    },
    {
      "children": [
        7
      ],
      "name": "Turret",
      "rotation": [
        -0.7692101001739502,
        0.0,
        0.0,
        0.6389961242675781
      ],
      "scale": [
        100.0,
        110.00000762939453,
        100.5575180053711
      ],
      "translation": [
        31.248336791992188,
        137.99774169921875,
        -12.335305213928223
      ]
    },
    {
      "mesh": 1,
      "name": "Turret_texture_0"
    }
  ],
  "samplers": [
    {
      "magFilter": 9729,
      "minFilter": 9987,
      "wrapS": 10497,
      "wrapT": 10497
    }
  ],
  "scene": 0,
  "scenes": [
    {
      "name": "Sketchfab_Scene",
      "nodes": [
        0
      ]
    }
  ],
  "textures": [
    {
      "sampler": 0,
      "source": 0
    }
  ]
}
