<svg width="116" height="40" viewBox="0 0 116 40" fill="none" xmlns="http://www.w3.org/2000/svg">
<g clip-path="url(#clip0_48277_21669)">
<rect width="40" height="40" rx="20" fill="#7008E7"/>
<g clip-path="url(#clip1_48277_21669)">
<path d="M0.769531 32.3159H46.0711L40.2854 26.9304L34.3121 5.38837L23.3103 12.7934L9.71982 5.38837L5.18967 26.2572L0.769531 32.3159Z" fill="#280A46"/>
<path d="M5.74031 32.3244L2.60156 40.4027H41.768L38.9916 32.3244H5.74031Z" fill="#280A46"/>
<path d="M21.8199 31.6491C21.8199 34.5438 19.5678 36.8865 16.7849 36.8865C14.0021 36.8865 11.75 34.5438 11.75 31.6491" fill="white"/>
<path d="M35.4097 31.6491C35.4097 34.5438 33.1576 36.8865 30.3748 36.8865C27.592 36.8865 25.3398 34.5438 25.3398 31.6491" fill="white"/>
<path d="M18.0105 35.0111C19.4402 35.0111 20.5992 33.8056 20.5992 32.3184C20.5992 30.8312 19.4402 29.6256 18.0105 29.6256C16.5809 29.6256 15.4219 30.8312 15.4219 32.3184C15.4219 33.8056 16.5809 35.0111 18.0105 35.0111Z" fill="#280A46"/>
<path d="M31.3387 35.0103C32.7683 35.0103 33.9273 33.8047 33.9273 32.3176C33.9273 30.8304 32.7683 29.6248 31.3387 29.6248C29.909 29.6248 28.75 30.8304 28.75 32.3176C28.75 33.8047 29.909 35.0103 31.3387 35.0103Z" fill="#280A46"/>
</g>
</g>
<path d="M42.4883 35.6216L47.4204 4.37073H63.1288L61.9683 11.7482H54.7151L54.0519 16.1002H60.5591L59.3571 23.4777H52.85L52.1039 28.2441H59.3571L58.1966 35.6216H42.4883Z" fill="#7008E7"/>
<path d="M75.8953 35.6216H61.0988L66.031 4.37073H74.4861L70.7145 28.2441H77.0558L75.8953 35.6216Z" fill="#7008E7"/>
<path d="M85.736 35.6216H77.2809L82.213 4.37073H97.1339L95.9734 11.7482H89.5077L88.8031 16.2659H94.8543L93.6938 23.6435H87.6426L85.736 35.6216Z" fill="#7008E7"/>
<path d="M115.195 35.6216H106.449V31.6012H100.771L99.4449 35.6216H90.741L103.175 4.37073H113.495L115.195 35.6216ZM102.968 24.9698H106.532L106.739 17.7166C106.767 17.1363 106.795 16.5146 106.822 15.8515C106.878 15.1883 106.919 14.4699 106.947 13.6962C107.002 12.8949 107.043 12.2732 107.071 11.8311H106.988C106.021 15.2021 105.441 17.164 105.247 17.7166L102.968 24.9698Z" fill="#7008E7"/>
<defs>
<clipPath id="clip0_48277_21669">
<rect width="40" height="40" rx="20" fill="white"/>
</clipPath>
<clipPath id="clip1_48277_21669">
<rect width="45.3016" height="35.0057" fill="white" transform="translate(0.769531 5.38788)"/>
</clipPath>
</defs>
</svg>
